<svg xmlns="http://www.w3.org/2000/svg" viewBox="0 0 600 600" width="600" height="600">
<rect width="600" height="600" fill="#FAFAF8"/>
<rect x="180" y="180" width="40" height="40" fill="#1C1C19"/>
<rect x="240" y="180" width="40" height="40" fill="none" stroke="#1C1C19" stroke-width="1.5"/>
<rect x="300" y="180" width="40" height="40" fill="#1C1C19"/>
<rect x="360" y="180" width="40" height="40" fill="none" stroke="#1C1C19" stroke-width="1.5"/>
<rect x="180" y="240" width="40" height="40" fill="none" stroke="#1C1C19" stroke-width="1.5"/>
<rect x="240" y="240" width="40" height="40" fill="#1C1C19"/>
<rect x="300" y="240" width="40" height="40" fill="none" stroke="#1C1C19" stroke-width="1.5"/>
<rect x="360" y="240" width="40" height="40" fill="#1C1C19"/>
<rect x="180" y="300" width="40" height="40" fill="#1C1C19"/>
<rect x="240" y="300" width="40" height="40" fill="none" stroke="#1C1C19" stroke-width="1.5"/>
<rect x="300" y="300" width="40" height="40" fill="#E8B931"/>
<rect x="360" y="300" width="40" height="40" fill="none" stroke="#1C1C19" stroke-width="1.5"/>
<rect x="180" y="360" width="40" height="40" fill="none" stroke="#1C1C19" stroke-width="1.5"/>
<rect x="240" y="360" width="40" height="40" fill="#1C1C19"/>
<rect x="300" y="360" width="40" height="40" fill="none" stroke="#1C1C19" stroke-width="1.5"/>
<rect x="360" y="360" width="40" height="40" fill="#1C1C19"/>
</svg>