<svg xmlns="http://www.w3.org/2000/svg" viewBox="0 0 600 600" width="600" height="600"><rect width="600" height="600" fill="#FAFAF8"/><line x1="127.2" y1="156" x2="184.8" y2="156" stroke="#1C1C19" stroke-width="1.5"/><line x1="156" y1="127.2" x2="156" y2="184.8" stroke="#1C1C19" stroke-width="1.5"/><polygon points="252.0,122.7 223.2,172.6 280.8,172.6" fill="#1C1C19" transform="rotate(0 252 156)"/><circle cx="348" cy="156" r="28.799999999999997" fill="#1C1C19"/><polygon points="156.0,218.7 127.2,268.6 184.8,268.6" fill="#1C1C19" transform="rotate(0 156 252)"/><circle cx="252" cy="252" r="28.799999999999997" fill="#1C1C19"/><circle cx="348" cy="252" r="28.799999999999997" fill="none" stroke="#1C1C19" stroke-width="1.5"/><rect x="415.2" y="223.2" width="57.599999999999994" height="57.599999999999994" fill="#1C1C19"/><line x1="127.2" y1="348" x2="184.8" y2="348" stroke="#1C1C19" stroke-width="1.5"/><line x1="156" y1="319.2" x2="156" y2="376.8" stroke="#1C1C19" stroke-width="1.5"/><line x1="223.2" y1="348" x2="280.8" y2="348" stroke="#1C1C19" stroke-width="1.5"/><line x1="252" y1="319.2" x2="252" y2="376.8" stroke="#1C1C19" stroke-width="1.5"/><circle cx="348" cy="348" r="28.799999999999997" fill="#1C1C19"/><circle cx="444" cy="348" r="28.799999999999997" fill="#1C1C19"/><line x1="127.2" y1="444" x2="184.8" y2="444" stroke="#1C1C19" stroke-width="1.5"/><line x1="156" y1="415.2" x2="156" y2="472.8" stroke="#1C1C19" stroke-width="1.5"/><circle cx="252" cy="444" r="28.799999999999997" fill="none" stroke="#1C1C19" stroke-width="1.5"/><polygon points="348.0,410.7 319.2,460.6 376.8,460.6" fill="#1C1C19" transform="rotate(0 348 444)"/></svg>